<svg width="30" height="30" viewBox="0 0 30 30" fill="none" xmlns="http://www.w3.org/2000/svg">
<g id="Group 1204">
<rect id="Rectangle 451" width="30" height="30" fill="#01384D"/>
<path id="Vector" d="M10.2098 10.2098C10.2761 10.1433 10.3549 10.0905 10.4417 10.0545C10.5285 10.0185 10.6215 10 10.7154 10C10.8093 10 10.9023 10.0185 10.9891 10.0545C11.0759 10.0905 11.1547 10.1433 11.221 10.2098L15.0002 13.9904L18.7794 10.2098C18.8458 10.1434 18.9246 10.0907 19.0113 10.0548C19.0981 10.0189 19.1911 10.0004 19.285 10.0004C19.3789 10.0004 19.4718 10.0189 19.5586 10.0548C19.6454 10.0907 19.7242 10.1434 19.7906 10.2098C19.857 10.2762 19.9096 10.355 19.9456 10.4418C19.9815 10.5285 20 10.6215 20 10.7154C20 10.8093 19.9815 10.9023 19.9456 10.989C19.9096 11.0758 19.857 11.1546 19.7906 11.221L16.01 15.0002L19.7906 18.7794C19.857 18.8458 19.9096 18.9246 19.9456 19.0113C19.9815 19.0981 20 19.1911 20 19.285C20 19.3789 19.9815 19.4718 19.9456 19.5586C19.9096 19.6454 19.857 19.7242 19.7906 19.7906C19.7242 19.857 19.6454 19.9096 19.5586 19.9456C19.4718 19.9815 19.3789 20 19.285 20C19.1911 20 19.0981 19.9815 19.0113 19.9456C18.9246 19.9096 18.8458 19.857 18.7794 19.7906L15.0002 16.01L11.221 19.7906C11.1546 19.857 11.0758 19.9096 10.989 19.9456C10.9023 19.9815 10.8093 20 10.7154 20C10.6215 20 10.5285 19.9815 10.4418 19.9456C10.355 19.9096 10.2762 19.857 10.2098 19.7906C10.1434 19.7242 10.0907 19.6454 10.0548 19.5586C10.0189 19.4718 10.0004 19.3789 10.0004 19.285C10.0004 19.1911 10.0189 19.0981 10.0548 19.0113C10.0907 18.9246 10.1434 18.8458 10.2098 18.7794L13.9904 15.0002L10.2098 11.221C10.1433 11.1547 10.0905 11.0759 10.0545 10.9891C10.0185 10.9023 10 10.8093 10 10.7154C10 10.6215 10.0185 10.5285 10.0545 10.4417C10.0905 10.3549 10.1433 10.2761 10.2098 10.2098Z" fill="white"/>
</g>
</svg>
