<svg width="88" height="88" viewBox="0 0 88 88" fill="none" xmlns="http://www.w3.org/2000/svg">
<g id="Iconly/Light/Image 5">
<path id="Vector" d="M77.758 54.8186C74.1133 51.647 70.9416 47.83 66.7617 45.311C62.5743 42.792 58.0753 44.3466 55.1713 48.105C52.3663 51.7386 50.6137 56.6263 46.3787 58.918C41.161 61.745 38.0956 57.1873 33.7433 55.3613C28.885 53.3263 25.1963 56.9856 22.3583 60.502C19.5166 64.022 16.6383 67.5053 13.749 70.9886M59.7793 10.0845H28.0663C10.085 10.0845 10.085 10.0845 10.085 21.1578V58.8621C10.085 77.7601 10.0003 78 28.0663 77.7601H66.67C77.758 77.7601 77.758 77.7601 77.758 58.918L77.7606 21.1578C77.7606 10.0845 77.7606 10.0845 59.7793 10.0845ZM39.2454 32.2136C39.2454 35.9499 36.2131 38.9822 32.4768 38.9822C28.7441 38.9822 25.7118 35.9499 25.7118 32.2136C25.7118 28.4772 28.7441 25.4449 32.4768 25.4449C36.2131 25.4449 39.2454 28.4772 39.2454 32.2136Z" stroke="#01384D" stroke-width="4" stroke-linecap="round" stroke-linejoin="round"/>
</g>
</svg>
